<svg xmlns="http://www.w3.org/2000/svg" xmlns:xlink="http://www.w3.org/1999/xlink" width="220.922" height="78.181" viewBox="0 0 220.922 78.181">
  <defs>
    <clipPath id="clip-path">
      <rect id="Rectangle_17242" data-name="Rectangle 17242" width="220.922" height="78.181" fill="none"/>
    </clipPath>
  </defs>
  <g id="carpix_logo" data-name="carpix logo" transform="translate(0 0)">
    <g id="Group_66188" data-name="Group 66188" transform="translate(0 0)" clip-path="url(#clip-path)">
      <path id="Path_3800" data-name="Path 3800" d="M33.784,40.075h8.844A19.3,19.3,0,0,1,35.2,51.4q-5.487,4.072-13.8,4.067-10.082,0-15.742-6.544Q0,42.552,0,30.7,0,19.384,5.483,13.013q5.658-6.541,15.742-6.544,10.613,0,16.451,6.367a24.251,24.251,0,0,1,4.6,9.021H29.891A10.381,10.381,0,0,0,28.123,19.2a8.5,8.5,0,0,0-6.544-2.475A8.627,8.627,0,0,0,15.21,19.2q-3.183,3.544-3.183,11.675t3.183,11.5q2.3,2.832,6.9,2.829a10.026,10.026,0,0,0,5.131-1.236,2.472,2.472,0,0,0,.973-.62c.293-.291.618-.618.973-.973A7.745,7.745,0,0,1,30.6,40.959a4.885,4.885,0,0,1,3.183-.884" transform="translate(0 6.267)" fill="#818386"/>
      <path id="Path_3801" data-name="Path 3801" d="M53.232,52.634a21.772,21.772,0,0,1-7.871,2.388,71.26,71.26,0,0,1-7.339.441,18.529,18.529,0,0,1-11.143-3.449Q22.1,48.565,22.1,40.6q0-7.427,4.333-10.611A24.961,24.961,0,0,1,37.49,25.749a10.389,10.389,0,0,0,2.124-.266c.823-.177,1.768-.323,2.829-.443q7.781-1.06,7.782-4.6a3.353,3.353,0,0,0-2.74-3.449,18.249,18.249,0,0,0-5.042-.8,12.95,12.95,0,0,0-4.422.707,4.835,4.835,0,0,0-2.831,2.654H23.34a13.625,13.625,0,0,1,4.953-9.021q4.775-4.066,13.62-4.067,9.9,0,14.856,3.361a11.358,11.358,0,0,1,5.131,9.9v16.1q0,7.076-2.565,11.054a15.676,15.676,0,0,1-6.1,5.749M50.4,30.877a33.256,33.256,0,0,1-6.9,2.3l-4.067.884a10.474,10.474,0,0,0-4.6,2.3A7.2,7.2,0,0,0,33.6,40.253,5.737,5.737,0,0,0,35.19,44.5a6.7,6.7,0,0,0,4.6,1.416,10.519,10.519,0,0,0,7.784-2.831A10.512,10.512,0,0,0,50.4,35.3Z" transform="translate(21.411 6.267)" fill="#818386"/>
      <path id="Path_3802" data-name="Path 3802" d="M43.215,54.057V31.239a29.125,29.125,0,0,1,2.034-11.586,19.218,19.218,0,0,1,5.572-7.517,21.935,21.935,0,0,1,7.871-3.892,35.113,35.113,0,0,1,9.287-1.236h1.77V19.565H65.678q-5.13,0-7.605,2.477T55.6,29.824V54.057Z" transform="translate(41.864 6.789)" fill="#818386"/>
      <path id="Path_3803" data-name="Path 3803" d="M69.349,65.9a6.04,6.04,0,0,1-6.014,6.014H57.32V27.871q0-12.376,7.253-16.892a29.254,29.254,0,0,1,15.742-4.51,25.5,25.5,0,0,1,8.932,1.679,16.69,16.69,0,0,1,7.164,4.865q5.307,6.9,5.306,17.687,0,11.145-5.306,18.043a16.592,16.592,0,0,1-13.62,6.721,17.986,17.986,0,0,1-7.782-1.593,13.316,13.316,0,0,1-5.66-5.483ZM89.513,31.232q0-6.9-2.654-10.613a8.781,8.781,0,0,0-7.605-3.713,8.608,8.608,0,0,0-7.428,3.713q-2.478,3.364-2.477,10.613,0,6.724,2.652,10.082a8.781,8.781,0,0,0,7.607,3.715,8.44,8.44,0,0,0,7.251-3.715q2.655-3.715,2.654-10.082" transform="translate(55.528 6.267)" fill="#a5c7f3"/>
      <path id="Path_3804" data-name="Path 3804" d="M81.488,0h6.367A5.806,5.806,0,0,1,92.1,1.77a5.8,5.8,0,0,1,1.768,4.245V9.729H81.488Zm0,13.8h6.367a6.036,6.036,0,0,1,6.015,6.014V60.846H81.488Z" transform="translate(78.94 0)" fill="#a5c7f3"/>
      <path id="Path_3805" data-name="Path 3805" d="M133.505,56.146H119.356l-8.314-14.858-8.668,14.858H88.047l15.39-24.233L88.931,9.1h13.62l8.137,14.149,9.021-15.21a5.487,5.487,0,0,1,5.308-3.185h10.611L117.94,32.09Z" transform="translate(85.294 4.7)" fill="#a5c7f3"/>
    </g>
  </g>
</svg>
